# xmcd
#
# Track frame offsets:
#	150
#	23270
#	37734
#	56535
#	74500
#	90692
#	109508
#	130558
#	145797
#	158252
#
# Disc length: 2367 seconds
#
# Revision: 1
# Processed by: cddbd v1.5PL3 Copyright (c) Steve Scherf et al.
# Submitted via: EasyCDDAExtractor 7.0.5.4
#
DISCID=6a093d0a
DTITLE=HUB
DYEAR=2004
DGENRE=Hip-Hop
TTITLE0=Little Italy
TTITLE1=Breath
TTITLE2=Oh Frankie!!!
TTITLE3=True
TTITLE4=Explain Yo Self
TTITLE5=Get At Me
TTITLE6=Long Kiss Goodnight
TTITLE7=My Style
TTITLE8=Stop Breathin'
TTITLE9=Malevolence
EXTD=
EXTT0=
EXTT1=
EXTT2=
EXTT3=
EXTT4=
EXTT5=
EXTT6=
EXTT7=
EXTT8=
EXTT9=
PLAYORDER=
